<svg width="16" height="16" viewBox="0 0 16 16" fill="none" xmlns="http://www.w3.org/2000/svg">
<path d="M1.79136 4.92846L1.75807 4.19231C1.75807 3.74348 1.93343 3.31303 2.24559 2.99567C2.55774 2.6783 2.98112 2.5 3.42257 2.5H6.47859C6.92001 2.5001 7.34332 2.67845 7.6554 2.99585L8.3445 3.69646C8.65658 4.01385 9.07989 4.19221 9.5213 4.19231H12.8353C13.0666 4.19228 13.2954 4.24127 13.507 4.33615C13.7187 4.43102 13.9085 4.5697 14.0645 4.74334C14.2205 4.91698 14.3392 5.12177 14.413 5.34464C14.4868 5.56751 14.5141 5.80357 14.4932 6.03777L13.963 11.9608C13.9254 12.3813 13.7346 12.7723 13.4281 13.0571C13.1215 13.3419 12.7213 13.4998 12.306 13.5H3.69388C3.27862 13.4998 2.87842 13.3419 2.57184 13.0571C2.26526 12.7723 2.07445 12.3813 2.03687 11.9608L1.50673 6.03777C1.47197 5.64588 1.57262 5.25392 1.79136 4.92931V4.92846ZM3.16457 5.03846C3.04896 5.03845 2.93462 5.06294 2.82883 5.11035C2.72304 5.15776 2.62812 5.22706 2.55014 5.31384C2.47215 5.40061 2.4128 5.50295 2.37587 5.61433C2.33894 5.72572 2.32525 5.8437 2.33565 5.96077L2.86579 11.8838C2.88448 12.0941 2.97978 12.2896 3.13299 12.4321C3.28621 12.5746 3.48626 12.6536 3.69388 12.6538H12.306C12.5136 12.6536 12.7137 12.5746 12.8669 12.4321C13.0201 12.2896 13.1154 12.0941 13.1341 11.8838L13.6642 5.96077C13.6747 5.8437 13.661 5.72572 13.624 5.61433C13.5871 5.50295 13.5277 5.40061 13.4498 5.31384C13.3718 5.22706 13.2769 5.15776 13.1711 5.11035C13.0653 5.06294 12.9509 5.03845 12.8353 5.03846H3.16457ZM7.06783 3.59408C6.99047 3.5154 6.8986 3.453 6.79749 3.41046C6.69639 3.36792 6.58802 3.34607 6.47859 3.34615H3.42257C3.20456 3.34611 2.99523 3.43305 2.8396 3.58828C2.68397 3.7435 2.59446 3.95461 2.59032 4.17623L2.59531 4.29385C2.77452 4.22672 2.96428 4.19287 3.16457 4.19231H7.6554L7.06783 3.59408Z" fill="black"/>
</svg>
