<svg width="14" height="15" viewBox="0 0 14 15" fill="none" xmlns="http://www.w3.org/2000/svg">
<path d="M5.59841 3.01891H8.40159C8.40159 2.64719 8.25392 2.29069 7.99107 2.02784C7.72822 1.76499 7.37172 1.61732 7 1.61732C6.62828 1.61732 6.27178 1.76499 6.00893 2.02784C5.74608 2.29069 5.59841 2.64719 5.59841 3.01891ZM4.75746 3.01891C4.75746 2.42415 4.99372 1.85375 5.41428 1.43319C5.83484 1.01263 6.40524 0.776367 7 0.776367C7.59476 0.776367 8.16516 1.01263 8.58572 1.43319C9.00628 1.85375 9.24254 2.42415 9.24254 3.01891H12.7465C12.858 3.01891 12.965 3.06321 13.0438 3.14206C13.1227 3.22092 13.167 3.32787 13.167 3.43939C13.167 3.5509 13.1227 3.65785 13.0438 3.73671C12.965 3.81556 12.858 3.85986 12.7465 3.85986H12.0121L11.3298 12.0468C11.2801 12.6424 11.0085 13.1976 10.5687 13.6023C10.1289 14.0069 9.55314 14.2316 8.9555 14.2316H5.0445C4.44686 14.2316 3.87106 14.0069 3.43128 13.6023C2.99149 13.1976 2.71985 12.6424 2.67021 12.0468L1.98792 3.85986H1.25348C1.14197 3.85986 1.03502 3.81556 0.956163 3.73671C0.877308 3.65785 0.833008 3.5509 0.833008 3.43939C0.833008 3.32787 0.877308 3.22092 0.956163 3.14206C1.03502 3.06321 1.14197 3.01891 1.25348 3.01891H4.75746ZM3.50836 11.9767C3.54042 12.3621 3.71615 12.7214 4.00068 12.9833C4.28522 13.2452 4.65779 13.3906 5.0445 13.3907H8.9555C9.34222 13.3906 9.71478 13.2452 9.99932 12.9833C10.2839 12.7214 10.4596 12.3621 10.4916 11.9767L11.1689 3.85986H2.83167L3.50836 11.9767ZM5.73857 5.82209C5.85009 5.82209 5.95704 5.86639 6.03589 5.94524C6.11475 6.0241 6.15905 6.13105 6.15905 6.24256V11.008C6.15905 11.1195 6.11475 11.2264 6.03589 11.3053C5.95704 11.3841 5.85009 11.4284 5.73857 11.4284C5.62705 11.4284 5.5201 11.3841 5.44125 11.3053C5.36239 11.2264 5.31809 11.1195 5.31809 11.008V6.24256C5.31809 6.13105 5.36239 6.0241 5.44125 5.94524C5.5201 5.86639 5.62705 5.82209 5.73857 5.82209ZM8.68191 6.24256C8.68191 6.13105 8.63761 6.0241 8.55875 5.94524C8.4799 5.86639 8.37295 5.82209 8.26143 5.82209C8.14991 5.82209 8.04296 5.86639 7.96411 5.94524C7.88525 6.0241 7.84095 6.13105 7.84095 6.24256V11.008C7.84095 11.1195 7.88525 11.2264 7.96411 11.3053C8.04296 11.3841 8.14991 11.4284 8.26143 11.4284C8.37295 11.4284 8.4799 11.3841 8.55875 11.3053C8.63761 11.2264 8.68191 11.1195 8.68191 11.008V6.24256Z" fill="black"/>
</svg>
