<svg width="800" height="256" viewBox="0 0 800 256" fill="none" xmlns="http://www.w3.org/2000/svg">
<path d="M762.271 255.083C746.232 255.083 736.151 248.209 731.263 236.295L748.982 227.435C750.815 233.24 755.703 237.211 763.952 237.211C770.367 237.211 774.339 235.225 775.102 231.254C777.088 219.492 735.387 226.213 740.581 196.885C743.33 181.762 757.689 174.43 771.589 174.43C785.031 174.43 795.266 180.54 800.001 190.622L782.282 199.481C780.601 194.746 776.324 191.844 770.52 191.844C765.632 191.844 761.202 193.83 760.285 198.412C757.841 211.396 800.001 202.231 794.655 232.781C791.905 248.209 778.463 255.083 762.271 255.083Z" fill="#EA8803"/>
<path d="M686.995 174.43C709.449 174.43 721.669 194.44 718.156 215.978C714.948 236.294 699.062 255.083 675.386 255.083C663.777 255.083 655.986 250.195 651.557 242.557L649.723 252.944H630.019L648.807 146.018H668.512L661.638 184.817C668.206 178.249 676.761 174.43 686.995 174.43ZM698.451 214.604C700.742 201.467 693.258 193.218 681.343 193.218C669.428 193.218 658.736 201.62 656.445 214.756C654.153 227.74 662.096 236.294 674.011 236.294C686.078 236.294 696.313 227.587 698.451 214.604Z" fill="#EA8803"/>
<path d="M567.81 255.083C541.689 255.083 528.705 234.309 532.982 212.313C537.107 190.927 555.131 174.43 579.113 174.43C603.401 174.43 616.843 195.052 612.871 216.742C609.205 238.28 589.959 255.083 567.81 255.083ZM569.184 235.836C580.335 235.836 591.181 227.893 593.319 214.604C595.763 201.62 587.82 193.677 576.669 193.677C565.518 193.677 555.131 201.62 552.687 214.757C550.396 227.893 558.034 235.836 569.184 235.836Z" fill="#EA8803"/>
<path d="M466.99 255.083C449.882 255.083 438.731 248.056 433.69 234.156L452.937 223.616C455.228 231.406 460.116 234.461 468.823 234.461C480.738 234.461 486.695 228.351 488.222 219.644L501.206 146.018H522.286L509.302 219.644C504.872 244.237 488.222 255.083 466.99 255.083Z" fill="#EA8803"/>
<path d="M400.627 176.569H420.331L406.889 252.944H387.184L388.406 245.918C382.144 251.722 373.742 255.083 363.05 255.083C339.068 255.083 328.222 234.156 332.194 212.924C335.86 191.844 352.663 174.43 375.27 174.43C386.268 174.43 394.211 179.013 398.794 186.803L400.627 176.569ZM369.16 236.295C380.922 236.295 391.003 228.199 393.753 215.979L394.058 213.535C395.739 200.856 387.643 193.219 376.339 193.219C364.73 193.219 354.19 201.009 351.899 214.604C349.608 227.435 356.94 236.295 369.16 236.295Z" fill="#EA8803"/>
<path d="M300.91 195.509L295.258 227.281C293.73 235.835 299.993 235.835 311.144 235.072L308.089 252.944C282.427 255.999 271.887 247.903 275.553 227.281L281.205 195.509H267.915L271.276 176.568H284.412L287.162 161.14L307.936 155.183L304.117 176.568H321.531L318.018 195.509H300.91Z" fill="#EA8803"/>
<path d="M216.453 255.083C200.414 255.083 190.333 248.209 185.445 236.295L203.164 227.435C204.997 233.24 209.885 237.211 218.133 237.211C224.549 237.211 228.52 235.225 229.284 231.254C231.27 219.492 189.569 226.213 194.762 196.885C197.512 181.762 211.871 174.43 225.771 174.43C239.213 174.43 249.447 180.54 254.183 190.622L236.464 199.481C234.783 194.746 230.506 191.844 224.702 191.844C219.814 191.844 215.384 193.83 214.467 198.412C212.023 211.396 254.183 202.231 248.836 232.781C246.087 248.209 232.645 255.083 216.453 255.083Z" fill="#EA8803"/>
<path d="M145.165 174.43C161.662 174.43 172.966 186.039 169.452 206.05L161.204 252.944H141.499L149.289 208.494C151.122 197.801 145.776 192.76 136.916 192.76C128.21 192.76 120.114 197.648 117.211 209.258L109.574 252.944H89.8689L103.311 176.569H123.016L121.488 184.817C127.446 177.943 136.305 174.43 145.165 174.43Z" fill="#EA8803"/>
<path d="M59.1532 146.018H80.2329L61.4445 252.944H40.3647L59.1532 146.018Z" fill="#EA8803"/>
<path fill-rule="evenodd" clip-rule="evenodd" d="M5.3377 135.277C5.3377 135.277 421.405 144.645 550.805 132.161L549.868 121.752C549.868 121.752 502.609 123.37 496.128 118.138C489.648 112.907 495.545 101.429 495.545 101.429L472.202 102.244C472.202 102.244 467.939 88.6739 476.337 77.1998C484.735 65.7257 453.116 70.8124 447.77 70.9991C442.424 71.1858 433.537 60.7977 443.59 60.4466C453.643 60.0956 480.012 52.3129 479.816 46.7046C479.62 41.0963 474.554 24.5069 464.318 24.8643C454.082 25.2218 458.624 3.05774 458.624 3.05774C458.624 3.05774 320.311 7.88773 306.725 8.36216C293.139 8.83659 260.461 16.0876 227.903 17.2246C195.345 18.3615 176.921 12.895 153.295 13.7201C129.668 14.5451 117.523 21.0791 105.069 21.514C92.6145 21.9489 71.9076 16.5622 68.051 16.6968C64.1944 16.8315 64.4906 22.9311 64.4906 22.9311L34.5914 23.9752L32.559 33.2156C32.559 33.2156 64.8883 34.3211 65.045 38.8073C65.2017 43.2934 61.3518 46.8152 52.1296 47.1372C42.9074 47.4593 29.3746 47.9318 29.3746 47.9318L29.7856 59.7017C29.7856 59.7017 43.3063 57.1658 41.1427 62.0234C38.9792 66.8809 34.0094 74.7495 34.0094 74.7495L24.3891 75.0854L24.7622 85.7709L34.463 87.7394C34.463 87.7394 14.6504 104.727 11.8367 108.737C9.02304 112.747 20.2781 113.441 20.2781 113.441L17.1987 120.169C17.1987 120.169 7.65699 128.398 5.10058 128.487C2.54417 128.577 5.3377 135.277 5.3377 135.277Z" fill="#242424"/>
<path d="M149.915 110.236C162.718 110.236 171.739 103.362 171.739 92.1061C171.739 79.8192 161.601 76.64 152.063 73.6327C142.955 70.8832 140.635 68.907 140.635 65.2123C140.635 61.7754 143.557 59.1977 148.54 59.1977C154.641 59.1977 157.906 62.3769 160.054 66.9308L170.021 61.174C165.983 52.7535 158.421 47.6841 148.54 47.6841C138.23 47.6841 128.778 54.2142 128.778 65.556C128.778 76.9837 137.714 80.8503 146.908 83.5139C155.844 86.0915 159.882 87.81 159.882 92.278C159.882 95.629 157.39 98.6363 150.259 98.6363C142.784 98.6363 138.573 95.0275 136.425 89.4425L126.286 95.3712C129.551 104.307 137.628 110.236 149.915 110.236Z" fill="#EA8803"/>
<path d="M201.898 110.236C215.13 110.236 224.925 102.331 224.925 89.3563V48.8867H213.068V88.4112C213.068 94.2539 209.975 98.636 201.898 98.636C193.821 98.636 190.728 94.2539 190.728 88.4112V48.8867H178.957V89.3563C178.957 102.331 188.752 110.236 201.898 110.236Z" fill="#EA8803"/>
<path fill-rule="evenodd" clip-rule="evenodd" d="M235.58 48.8867H258.006C269.605 48.8867 278.541 57.8227 278.541 69.0786C278.541 80.3344 269.605 89.2704 258.006 89.2704H247.437V109.033H235.58V48.8867ZM247.437 78.1853H258.005C263.075 78.1853 266.77 74.2329 266.77 69.0775C266.77 63.8362 263.075 59.9697 258.005 59.9697H247.437V78.1853Z" fill="#EA8803"/>
<path d="M298.132 97.6908V84.201H320.902V73.031H298.132V60.2285H323.05V48.8867H286.275V109.033H323.48V97.6908H298.132Z" fill="#EA8803"/>
<path fill-rule="evenodd" clip-rule="evenodd" d="M377.61 109.033H364.808L352.692 88.1534H343.671V109.033H331.813V48.8867H355.872C366.956 48.8867 375.892 57.8227 375.892 68.8208C375.892 76.382 371.166 83.1699 364.292 86.349L377.61 109.033ZM355.871 59.9697H343.67V77.7557H355.871C360.339 77.7557 364.034 73.8033 364.034 68.8198C364.034 63.8362 360.339 59.9697 355.871 59.9697Z" fill="#EA8803"/>
</svg>
