<svg width="204" height="56" viewBox="0 0 204 56" fill="none" xmlns="http://www.w3.org/2000/svg">
<path d="M20.5332 36.0444L23.3776 20.0444H27.8221L25.0665 36.0444H20.5332Z" fill="#3C58BF"/>
<path d="M20.5332 36.0444L24.1776 20.0444H27.8221L25.0665 36.0444H20.5332Z" fill="#293688"/>
<path d="M41.1557 20.2222C40.2668 19.8667 38.8446 19.5111 37.0668 19.5111C32.6223 19.5111 29.4223 21.7333 29.4223 24.9333C29.4223 27.3333 31.6446 28.5778 33.4223 29.3778C35.2001 30.1778 35.7334 30.7111 35.7334 31.4222C35.7334 32.4889 34.3112 33.0222 33.0668 33.0222C31.289 33.0222 30.3112 32.7556 28.8001 32.1333L28.1779 31.8667L27.5557 35.5111C28.6223 35.9556 30.5779 36.4 32.6223 36.4C37.3334 36.4 40.4446 34.1778 40.4446 30.8C40.4446 28.9333 39.289 27.5111 36.6223 26.3556C35.0223 25.5556 34.0446 25.1111 34.0446 24.3111C34.0446 23.6 34.8446 22.8889 36.6223 22.8889C38.1334 22.8889 39.2001 23.1556 40.0001 23.5111L40.4446 23.6889L41.1557 20.2222Z" fill="#3C58BF"/>
<path d="M41.1557 20.2222C40.2668 19.8667 38.8446 19.5111 37.0668 19.5111C32.6223 19.5111 30.2223 21.7333 30.2223 24.9333C30.2223 27.3333 31.6446 28.5778 33.4223 29.3778C35.2001 30.1778 35.7334 30.7111 35.7334 31.4222C35.7334 32.4889 34.3112 33.0222 33.0668 33.0222C31.289 33.0222 30.3112 32.7556 28.8001 32.1333L28.1779 31.8667L27.5557 35.5111C28.6223 35.9556 30.5779 36.4 32.6223 36.4C37.3334 36.4 40.4446 34.1778 40.4446 30.8C40.4446 28.9333 39.289 27.5111 36.6223 26.3556C35.0223 25.5556 34.0446 25.1111 34.0446 24.3111C34.0446 23.6 34.8446 22.8889 36.6223 22.8889C38.1334 22.8889 39.2001 23.1556 40.0001 23.5111L40.4446 23.6889L41.1557 20.2222Z" fill="#293688"/>
<path d="M48.8 20.0444C47.7334 20.0444 46.9334 20.1333 46.4889 21.2L39.8223 36.0444H44.6223L45.5112 33.3778H51.2L51.7334 36.0444H56L52.2667 20.0444H48.8ZM46.7556 30.7111C47.0223 29.9111 48.5334 26 48.5334 26C48.5334 26 48.8889 25.0222 49.1556 24.4L49.4223 25.9111C49.4223 25.9111 50.3112 29.9111 50.4889 30.8H46.7556V30.7111Z" fill="#3C58BF"/>
<path d="M49.8667 20.0444C48.8 20.0444 48 20.1333 47.5556 21.2L39.8223 36.0444H44.6223L45.5112 33.3778H51.2L51.7334 36.0444H56L52.2667 20.0444H49.8667ZM46.7556 30.7111C47.1112 29.8222 48.5334 26 48.5334 26C48.5334 26 48.8889 25.0222 49.1556 24.4L49.4223 25.9111C49.4223 25.9111 50.3112 29.9111 50.4889 30.8H46.7556V30.7111Z" fill="#293688"/>
<path d="M12.3551 31.2445L11.9107 28.9334C11.1107 26.2667 8.53292 23.3334 5.68848 21.9111L9.68848 36.1334H14.4885L21.6885 20.1334H16.8885L12.3551 31.2445Z" fill="#3C58BF"/>
<path d="M12.3551 31.2445L11.9107 28.9334C11.1107 26.2667 8.53292 23.3334 5.68848 21.9111L9.68848 36.1334H14.4885L21.6885 20.1334H17.7774L12.3551 31.2445Z" fill="#293688"/>
<path d="M0 20.0444L0.8 20.2222C6.48889 21.5555 10.4 24.9333 11.9111 28.9333L10.3111 21.3778C10.0444 20.3111 9.24444 20.0444 8.26667 20.0444H0Z" fill="#FFBC00"/>
<path d="M0 20.0444C5.68889 21.3778 10.4 24.8444 11.9111 28.8444L10.4 22.5333C10.1333 21.4667 9.24444 20.8444 8.26667 20.8444L0 20.0444Z" fill="#F7981D"/>
<path d="M0 20.0444C5.68889 21.3778 10.4 24.8444 11.9111 28.8444L10.8444 25.3778C10.5778 24.3111 10.2222 23.2444 8.97778 22.8L0 20.0444Z" fill="#ED7C00"/>
<path d="M16.7996 30.7111L13.7773 27.6889L12.3551 31.0667L11.9996 28.8444C11.1996 26.1778 8.62179 23.2444 5.77734 21.8222L9.77734 36.0444H14.5773L16.7996 30.7111Z" fill="#051244"/>
<path d="M25.0665 36.0444L21.2443 32.1333L20.5332 36.0444H25.0665Z" fill="#051244"/>
<path d="M35.288 30.5333C35.6436 30.8889 35.8214 31.1555 35.7325 31.5111C35.7325 32.5778 34.3102 33.1111 33.0658 33.1111C31.288 33.1111 30.3102 32.8444 28.7991 32.2222L28.1769 31.9555L27.5547 35.6C28.6214 36.0444 30.5769 36.4889 32.6214 36.4889C35.4658 36.4889 37.7769 35.6889 39.1102 34.2667L35.288 30.5333Z" fill="#051244"/>
<path d="M40.4443 36.0444H44.6221L45.511 33.3777H51.1999L51.7332 36.0444H55.9999L54.4888 29.5555L49.1554 24.4L49.4221 25.8222C49.4221 25.8222 50.311 29.8222 50.4888 30.7111H46.7554C47.111 29.8222 48.5332 26 48.5332 26C48.5332 26 48.8888 25.0222 49.1554 24.4" fill="#051244"/>
<path d="M78.1804 49.6093V46.7282C78.1804 45.6235 77.5079 44.9034 76.3554 44.9034C75.7792 44.9034 75.1549 45.0954 74.7226 45.7197C74.3866 45.1915 73.9064 44.9034 73.1861 44.9034C72.7057 44.9034 72.2258 45.0473 71.8414 45.5756V44.9994H70.833V49.6093H71.8414V47.0642C71.8414 46.248 72.2737 45.8637 72.9461 45.8637C73.6181 45.8637 73.9546 46.2959 73.9546 47.0642V49.6093H74.963V47.0642C74.963 46.248 75.4429 45.8637 76.0673 45.8637C76.7397 45.8637 77.0757 46.2959 77.0757 47.0642V49.6093H78.1804ZM93.1147 44.9994H91.4821V43.6068H90.4737V44.9994H89.5613V45.9116H90.4735V48.0247C90.4735 49.0813 90.9057 49.7054 92.0583 49.7054C92.4906 49.7054 92.9705 49.5614 93.3069 49.3694L93.0186 48.5049C92.7305 48.6969 92.3945 48.7451 92.1544 48.7451C91.6742 48.7451 91.4821 48.457 91.4821 47.9766V45.9116H93.1147V44.9994ZM101.663 44.9031C101.086 44.9031 100.702 45.1915 100.462 45.5756V44.9994H99.4536V49.6093H100.462V47.0163C100.462 46.248 100.798 45.8158 101.422 45.8158C101.614 45.8158 101.855 45.8639 102.047 45.9118L102.335 44.9515C102.143 44.9034 101.855 44.9034 101.663 44.9034M88.7449 45.3837C88.2645 45.0475 87.5923 44.9036 86.872 44.9036C85.7196 44.9036 84.9514 45.4798 84.9514 46.3922C84.9514 47.1607 85.5275 47.5927 86.536 47.7368L87.0161 47.785C87.5444 47.8808 87.8325 48.0249 87.8325 48.2651C87.8325 48.6011 87.4484 48.8413 86.7759 48.8413C86.1037 48.8413 85.5754 48.6011 85.2392 48.3611L84.7591 49.1294C85.2874 49.5135 86.0077 49.7056 86.7278 49.7056C88.0725 49.7056 88.8409 49.0815 88.8409 48.217C88.8409 47.4006 88.2166 46.9684 87.2561 46.8244L86.7759 46.7763C86.3437 46.7282 86.0077 46.6324 86.0077 46.3443C86.0077 46.0081 86.3437 45.816 86.872 45.816C87.4484 45.816 88.0246 46.056 88.3127 46.2001L88.7449 45.3837ZM115.541 44.9036C114.964 44.9036 114.58 45.1917 114.34 45.5758V44.9996H113.332V49.6096H114.34V47.0165C114.34 46.2482 114.676 45.816 115.3 45.816C115.493 45.816 115.733 45.8641 115.925 45.912L116.213 44.9517C116.021 44.9036 115.733 44.9036 115.541 44.9036ZM102.671 47.3046C102.671 48.6972 103.631 49.7056 105.12 49.7056C105.792 49.7056 106.272 49.5617 106.753 49.1775L106.272 48.3611C105.888 48.6492 105.504 48.7932 105.072 48.7932C104.256 48.7932 103.679 48.217 103.679 47.3046C103.679 46.4403 104.256 45.8639 105.072 45.816C105.504 45.816 105.888 45.9599 106.272 46.2482L106.753 45.4319C106.272 45.0475 105.792 44.9036 105.12 44.9036C103.631 44.9036 102.671 45.912 102.671 47.3046ZM111.987 47.3046V44.9996H110.979V45.5758C110.642 45.1438 110.162 44.9036 109.538 44.9036C108.241 44.9036 107.233 45.912 107.233 47.3046C107.233 48.6972 108.241 49.7056 109.538 49.7056C110.21 49.7056 110.691 49.4656 110.979 49.0334V49.6096H111.987V47.3046ZM108.289 47.3046C108.289 46.4882 108.818 45.816 109.682 45.816C110.498 45.816 111.075 46.4403 111.075 47.3046C111.075 48.121 110.498 48.7932 109.682 48.7932C108.818 48.7451 108.289 48.121 108.289 47.3046ZM96.2362 44.9036C94.8916 44.9036 93.931 45.8639 93.931 47.3046C93.931 48.7453 94.8914 49.7056 96.2841 49.7056C96.9564 49.7056 97.6288 49.5135 98.1571 49.0815L97.6767 48.3611C97.2926 48.6492 96.8124 48.8413 96.3323 48.8413C95.7079 48.8413 95.0836 48.5532 94.9395 47.7366H98.3491V47.3527C98.3973 45.8639 97.533 44.9036 96.2362 44.9036ZM96.236 45.7679C96.8601 45.7679 97.2926 46.1522 97.3884 46.8726H94.9874C95.0834 46.2482 95.5157 45.7679 96.236 45.7679ZM121.255 47.3046V43.1748H120.246V45.5758C119.91 45.1438 119.43 44.9036 118.806 44.9036C117.509 44.9036 116.501 45.912 116.501 47.3046C116.501 48.6972 117.509 49.7056 118.806 49.7056C119.478 49.7056 119.958 49.4656 120.246 49.0334V49.6096H121.255V47.3046ZM117.557 47.3046C117.557 46.4882 118.085 45.816 118.95 45.816C119.766 45.816 120.342 46.4403 120.342 47.3046C120.342 48.121 119.766 48.7932 118.95 48.7932C118.085 48.7451 117.557 48.121 117.557 47.3046ZM83.8464 47.3046V44.9996H82.838V45.5758C82.5018 45.1438 82.0216 44.9036 81.3973 44.9036C80.1008 44.9036 79.0924 45.912 79.0924 47.3046C79.0924 48.6972 80.1008 49.7056 81.3973 49.7056C82.0698 49.7056 82.5499 49.4656 82.838 49.0334V49.6096H83.8464V47.3046ZM80.1008 47.3046C80.1008 46.4882 80.6291 45.816 81.4934 45.816C82.3097 45.816 82.8861 46.4403 82.8861 47.3046C82.8861 48.121 82.3097 48.7932 81.4934 48.7932C80.6291 48.7451 80.1008 48.121 80.1008 47.3046Z" fill="black"/>
<path d="M88.4092 9.99219H103.536V37.1721H88.4092V9.99219Z" fill="#FF5F00"/>
<path d="M89.3695 23.582C89.3695 18.0597 91.9625 13.1614 95.9482 9.99196C93.0191 7.687 89.3216 6.29443 85.2878 6.29443C75.7313 6.29443 68 14.0257 68 23.582C68 33.1381 75.7313 40.8696 85.2876 40.8696C89.3213 40.8696 93.0189 39.4771 95.9482 37.1719C91.9625 34.0505 89.3695 29.1044 89.3695 23.582Z" fill="#EB001B"/>
<path d="M123.944 23.582C123.944 33.1381 116.213 40.8696 106.657 40.8696C102.623 40.8696 98.9254 39.4771 95.9961 37.1719C100.03 34.0026 102.575 29.1044 102.575 23.582C102.575 18.0597 99.9817 13.1614 95.9961 9.99196C98.9252 7.687 102.623 6.29443 106.657 6.29443C116.213 6.29443 123.944 14.0738 123.944 23.582Z" fill="#F79E1B"/>
<path d="M204 43.9995C204 45.8278 202.518 47.3099 200.69 47.3099H151.31C149.482 47.31 148 45.8278 148 43.9995V12.0003C148 10.1721 149.482 8.68994 151.31 8.68994H200.69C202.518 8.68994 204 10.1721 204 12.0003V43.9995Z" fill="#306FC5"/>
<path opacity="0.15" d="M150.353 43.9995V12.0003C150.353 10.1721 151.836 8.68994 153.664 8.68994H151.31C149.482 8.68994 148 10.172 148 12.0003V43.9996C148 45.8279 149.482 47.31 151.31 47.31H153.664C151.836 47.31 150.353 45.8278 150.353 43.9995Z" fill="#202121"/>
<path d="M156.158 24.1443H157.831L156.995 22.0148L156.158 24.1443Z" fill="white"/>
<path d="M165.057 31.293V32.2818H167.871V33.3468H165.057V34.4879H168.175L169.62 32.8904L168.251 31.293H165.057Z" fill="white"/>
<path d="M187.036 22.0148L186.123 24.1443H187.872L187.036 22.0148Z" fill="white"/>
<path d="M173.194 35.0957V30.7607L171.217 32.8904L173.194 35.0957Z" fill="white"/>
<path d="M176.921 31.9778C176.845 31.5215 176.541 31.293 176.084 31.293H174.487V32.6619H176.161C176.617 32.662 176.921 32.434 176.921 31.9778Z" fill="white"/>
<path d="M182.245 32.5102C182.397 32.434 182.473 32.2056 182.473 31.9779C182.549 31.6739 182.397 31.5216 182.245 31.4455C182.093 31.3693 181.864 31.3693 181.637 31.3693H180.115V32.5863H181.637C181.864 32.5863 182.093 32.5863 182.245 32.5102Z" fill="white"/>
<path d="M193.196 20.0373V20.9499L192.74 20.0373H189.166V20.9499L188.709 20.0373H183.842C183.005 20.0373 182.32 20.1895 181.712 20.4937V20.0373H178.29V20.1134V20.4937C177.91 20.1897 177.454 20.0373 176.845 20.0373H164.601L163.764 21.9387L162.927 20.0373H160.19H159.049V20.9499L158.668 20.0373H158.592H155.322L153.801 23.6117L152.052 27.4903L152.02 27.5666H152.052H155.93H155.979L156.007 27.4903L156.463 26.3498H157.452L157.908 27.5666H162.319V27.4903V26.6539L162.699 27.5664H164.905L165.285 26.6539V27.4903V27.5666H167.034H175.78H175.856V25.5891H176.009C176.161 25.5891 176.161 25.5891 176.161 25.8173V27.4904H181.636V27.0341C182.093 27.2626 182.777 27.4904 183.69 27.4904H185.971L186.428 26.2739H187.492L187.948 27.4904H192.359V26.7301V26.3499L193.044 27.4904H193.196H193.272H196.619V20.0373H193.196H193.196ZM167.414 26.426H166.654H166.197V25.97V22.2429L166.121 22.4174V22.4153L164.352 26.426H164.296H163.889H163.231L161.406 22.2429V26.426H158.82L158.288 25.2852H155.702L155.17 26.426H153.833L156.083 21.1022H157.984L160.113 26.1976V21.1022H160.569H162.128L162.164 21.1784H162.167L163.126 23.2668L163.815 24.8315L163.84 24.7527L165.361 21.1023H167.414V26.426H167.414ZM172.662 22.2429H169.696V23.2316H172.586V24.2962H169.696V25.3613H172.662V26.5018H168.403V21.1023H172.662V22.2429ZM178.087 24.204C178.089 24.2058 178.091 24.207 178.094 24.2086C178.122 24.239 178.147 24.2696 178.168 24.2988C178.314 24.4897 178.431 24.7738 178.437 25.1903C178.438 25.1975 178.438 25.2046 178.439 25.2118C178.439 25.216 178.439 25.2196 178.439 25.2239C178.439 25.2263 178.439 25.2281 178.439 25.2304C178.441 25.2723 178.442 25.3151 178.442 25.3613V26.4261H177.301V25.8174C177.301 25.5133 177.301 25.0568 177.073 24.7527C177.001 24.6808 176.928 24.6334 176.849 24.5998C176.735 24.5259 176.519 24.5247 176.161 24.5247H174.791V26.4261H173.499V21.1023H176.389C177.073 21.1023 177.529 21.1023 177.91 21.3304C178.282 21.5542 178.508 21.9253 178.516 22.513C178.498 23.3224 177.979 23.7664 177.605 23.9162C177.605 23.9162 177.859 23.9672 178.087 24.204ZM180.648 26.426H179.355V21.1022H180.648V26.426ZM195.478 26.426H193.805L191.371 22.395V25.7413L191.363 25.7334V26.4293H190.078V26.4261H188.785L188.329 25.2853H185.667L185.21 26.5019H183.766C183.158 26.5019 182.396 26.35 181.94 25.8937C181.484 25.4374 181.256 24.8289 181.256 23.8404C181.256 23.0799 181.408 22.3189 181.94 21.7106C182.32 21.254 183.005 21.1023 183.842 21.1023H185.059V22.2429H183.842C183.385 22.2429 183.158 22.3187 182.853 22.5473C182.625 22.7754 182.473 23.2316 182.473 23.7639C182.473 24.3725 182.549 24.7527 182.853 25.0568C183.081 25.2853 183.385 25.3614 183.766 25.3614H184.298L186.047 21.1786H186.808H187.948L190.078 26.2741V26.0142V24.2965V24.1445V21.1787H191.979L194.184 24.9051V21.1787H195.478V26.4262H195.478V26.426Z" fill="white"/>
<path d="M177.002 23.3195C177.024 23.2958 177.044 23.2689 177.062 23.238C177.13 23.129 177.209 22.9325 177.167 22.6645C177.165 22.6398 177.161 22.6171 177.155 22.5951C177.154 22.589 177.154 22.5836 177.153 22.5775L177.152 22.5776C177.114 22.4473 177.017 22.3673 176.921 22.3187C176.769 22.2429 176.54 22.2429 176.312 22.2429H174.791V23.4599H176.312C176.54 23.4599 176.769 23.4599 176.921 23.3837C176.944 23.3721 176.964 23.3564 176.984 23.3385L176.984 23.3395C176.984 23.3395 176.992 23.3313 177.002 23.3195Z" fill="white"/>
<path d="M199.965 34.0314C199.965 33.499 199.813 32.9665 199.585 32.5863V29.1641H199.581V28.9356C199.581 28.9356 196.394 28.9356 195.919 28.9356C195.445 28.9356 194.869 29.3918 194.869 29.3918V28.9356H191.371C190.838 28.9356 190.154 29.0878 189.85 29.3918V28.9356H183.614V29.1641V29.3917C183.158 29.0117 182.32 28.9355 181.94 28.9355H177.833V29.164V29.3916C177.453 29.0116 176.54 28.9354 176.084 28.9354H171.521L170.456 30.0763L169.468 28.9354H169.149H168.631H162.623V29.1638V29.7646V36.6171H169.316L170.415 35.5171L171.369 36.6171H171.445H175.301H175.476H175.552H175.628V35.8566V34.868H176.008C176.54 34.868 177.225 34.868 177.757 34.6395V36.5406V36.6931H181.18V36.5406V34.7156H181.332C181.56 34.7156 181.56 34.7156 181.56 34.9438V36.5406V36.6931H191.903C192.588 36.6931 193.272 36.5406 193.652 36.2365V36.5406V36.6931H196.923C197.607 36.6931 198.292 36.6171 198.748 36.3127C199.448 35.8926 199.89 35.149 199.955 34.262C199.958 34.2358 199.962 34.2095 199.964 34.1832L199.96 34.1789C199.963 34.1297 199.965 34.081 199.965 34.0314ZM176.008 33.5752H174.487V33.8028V34.2593V34.7157V35.5523H171.987L170.532 33.879L170.527 33.8846L170.456 33.8028L168.783 35.5523H163.916V30.2287H168.859L170.21 31.708L170.494 32.0178L170.532 31.9778L172.13 30.2288H176.16C176.943 30.2288 177.819 30.4219 178.15 31.2178C178.19 31.3754 178.214 31.5506 178.214 31.7497C178.214 33.2707 177.149 33.5752 176.008 33.5752ZM183.614 33.4989C183.766 33.7265 183.842 34.0313 183.842 34.4878V35.5522H182.549V34.868C182.549 34.5633 182.549 34.0313 182.321 33.8028C182.169 33.5752 181.864 33.5752 181.408 33.5752H180.039V35.5523H178.747V30.1526H181.636C182.244 30.1526 182.777 30.1526 183.158 30.3805C183.538 30.6089 183.842 30.9892 183.842 31.5977C183.842 32.4341 183.31 32.8904 182.929 33.0427C183.31 33.1942 183.538 33.3468 183.614 33.4989ZM188.861 31.2929H185.895V32.2817H188.785V33.3467H185.895V34.4116H188.861V35.5522H184.603V30.1525H188.861V31.2929ZM192.055 35.5523H189.622V34.4117H192.055C192.283 34.4117 192.436 34.4117 192.588 34.2594C192.664 34.1832 192.74 34.0314 192.74 33.8791C192.74 33.7266 192.664 33.5753 192.588 33.499C192.512 33.423 192.359 33.3469 192.131 33.3469C190.914 33.2708 189.469 33.3469 189.469 31.6739C189.469 30.9133 189.926 30.0766 191.295 30.0766H193.804V31.3693H191.447C191.219 31.3693 191.067 31.3693 190.914 31.4454C190.763 31.5216 190.763 31.6739 190.763 31.8258C190.763 32.0541 190.914 32.1302 191.066 32.2057C191.219 32.2819 191.371 32.2819 191.523 32.2819H192.207C192.892 32.2819 193.348 32.4341 193.652 32.7383C193.881 32.9666 194.033 33.3469 194.033 33.8791C194.033 35.0196 193.348 35.5523 192.055 35.5523ZM198.596 35.0196C198.292 35.3242 197.759 35.5523 196.999 35.5523H194.565V34.4117H196.999C197.227 34.4117 197.379 34.4117 197.531 34.2594C197.607 34.1832 197.683 34.0314 197.683 33.8791C197.683 33.7266 197.607 33.5753 197.531 33.499C197.455 33.423 197.303 33.3469 197.075 33.3469C195.858 33.2708 194.413 33.3469 194.413 31.674C194.413 30.9511 194.827 30.2982 195.846 30.1043C195.968 30.0874 196.097 30.0766 196.238 30.0766H198.748V31.3693H197.075H196.467H196.39C196.162 31.3693 196.01 31.3693 195.858 31.4454C195.782 31.5216 195.706 31.6739 195.706 31.8258C195.706 32.0541 195.782 32.1302 196.01 32.2057C196.162 32.2819 196.314 32.2819 196.467 32.2819H196.542H197.151C197.483 32.2819 197.735 32.3229 197.965 32.4038C198.175 32.48 198.873 32.7919 199.029 33.6062C199.042 33.6915 199.052 33.7806 199.052 33.8791C199.052 34.3355 198.9 34.7157 198.596 35.0196Z" fill="white"/>
</svg>
