<svg width="54" height="54" viewBox="0 0 54 54" fill="none" xmlns="http://www.w3.org/2000/svg">
<g clip-path="url(#clip0_1401_1076)">
<path d="M22.9196 43.9493C24.8979 42.6194 26.9554 41.4111 29.0806 40.3313L29.8316 41.0839C30.611 41.8609 31.2294 42.784 31.6514 43.8004C32.0733 44.8168 32.2906 45.9065 32.2906 47.0071C32.2906 48.1076 32.0733 49.1973 31.6514 50.2137C31.2294 51.2301 30.611 52.1532 29.8316 52.9302L29.7 53.0618C29.0485 53.6796 28.1819 54.019 27.2841 54.008C26.3864 53.997 25.5283 53.6363 24.8923 53.0027L18.8662 46.9632C19.1278 46.7235 19.4265 46.4974 19.737 46.2578C20.7714 45.4613 21.8345 44.6867 22.9196 43.9493Z" fill="white"/>
<path d="M44.9446 7.76249L44.9159 7.79287L42.4403 10.1554C42.1199 10.4687 41.6881 10.6418 41.24 10.6367C40.7919 10.6317 40.3641 10.4488 40.0508 10.1284C39.7375 9.80792 39.5644 9.37614 39.5694 8.92802C39.5745 8.47991 39.7574 8.05215 40.0778 7.73887L40.1065 7.70849L42.5821 5.34599C42.7407 5.19087 42.9284 5.06852 43.1344 4.98592C43.3403 4.90332 43.5605 4.8621 43.7824 4.86461C44.0043 4.86712 44.2235 4.9133 44.4276 5.00053C44.6316 5.08776 44.8165 5.21432 44.9716 5.37299C45.1267 5.53166 45.2491 5.71933 45.3316 5.92529C45.4142 6.13124 45.4555 6.35145 45.453 6.57333C45.4505 6.79522 45.4043 7.01444 45.317 7.21847C45.2298 7.42251 45.1032 7.60737 44.9446 7.76249Z" fill="white"/>
<path d="M32.7206 5.20596C32.4859 5.45211 32.1814 5.6205 31.8482 5.6885C31.5149 5.7565 31.1689 5.72085 30.8565 5.58634C30.5441 5.45183 30.2804 5.22491 30.1008 4.93608C29.9212 4.64726 29.8343 4.31037 29.8518 3.97071L29.9362 1.63183C29.9514 1.18428 30.1438 0.761103 30.471 0.455396C30.7983 0.149688 31.2335 -0.0135082 31.6811 0.0017086C32.1286 0.0169254 32.5518 0.209309 32.8575 0.536536C33.1632 0.863764 33.3264 1.29903 33.3112 1.74658L33.2319 4.08546C33.2087 4.51004 33.0261 4.91022 32.7206 5.20596Z" fill="white"/>
<path d="M49.6548 19.7337C49.4736 19.9168 49.2528 20.0559 49.0094 20.1405C48.7661 20.225 48.5066 20.2527 48.2508 20.2214L45.4833 19.8687C45.0389 19.8123 44.6351 19.5817 44.3607 19.2276C44.0864 18.8735 43.9639 18.4248 44.0203 17.9804C44.0767 17.536 44.3073 17.1322 44.6614 16.8578C45.0156 16.5834 45.4642 16.461 45.9086 16.5173L48.6778 16.8751C48.9909 16.9152 49.2865 17.0424 49.5309 17.2421C49.7754 17.4418 49.9589 17.7061 50.0607 18.0049C50.1625 18.3037 50.1784 18.625 50.1066 18.9324C50.0349 19.2398 49.8784 19.521 49.6548 19.7438V19.7337Z" fill="white"/>
<path d="M8.69879 28.8091L21.026 41.1464C19.8683 41.9226 18.7343 42.7461 17.6358 43.6068C17.138 43.9881 16.6823 44.4252 16.1812 44.8015C15.1844 45.6326 13.9143 46.0634 12.6176 46.0104C11.3209 45.9574 10.0902 45.4243 9.16454 44.5146L5.34572 40.6925C4.43723 39.765 3.90528 38.5334 3.8529 37.2362C3.80053 35.9389 4.23146 34.6684 5.06222 33.6708C6.36382 32.119 7.57789 30.496 8.69879 28.8091Z" fill="white"/>
<path d="M24.9754 9.58165L40.2489 24.8687C40.869 25.4993 41.3131 26.2813 41.5369 27.1369C41.7608 27.9924 41.7566 28.8917 41.5248 29.7452C41.293 30.5987 40.8417 31.3765 40.2158 32.0013C39.5898 32.6261 38.8112 33.076 37.9573 33.3062C34.0134 34.4016 30.1977 35.9148 26.5751 37.8203C25.6858 38.2894 24.8184 38.7973 23.9494 39.3019L10.5371 25.8711C13.1621 21.4949 15.1808 16.7825 16.5379 11.8632C16.7733 11.0129 17.2261 10.2387 17.8518 9.6168C18.4775 8.99487 19.2544 8.54669 20.106 8.31641C20.9576 8.08614 21.8546 8.08171 22.7084 8.30357C23.5623 8.52544 24.3436 8.96593 24.9754 9.58165Z" fill="white"/>
<path d="M36.9427 11.6961C37.9025 12.6568 38.6171 13.8343 39.0262 15.1292C39.4354 16.4242 39.527 17.7985 39.2934 19.1363L29.5059 9.34879C30.8428 9.11402 32.2167 9.20476 33.5112 9.61335C34.8057 10.0219 35.9827 10.7363 36.9427 11.6961Z" fill="white"/>
</g>
<defs>
<clipPath id="clip0_1401_1076">
<rect width="54" height="54" fill="white"/>
</clipPath>
</defs>
</svg>
