<svg width="56" height="40" viewBox="0 0 56 40" fill="none" xmlns="http://www.w3.org/2000/svg">
<path fill-rule="evenodd" clip-rule="evenodd" d="M14.3006 6.3006C16.9517 3.64937 20.3151 1.8243 23.9829 1.04671C27.6507 0.269113 31.4653 0.57241 34.9641 1.91981C38.4629 3.26722 41.4956 5.60084 43.6945 8.63768C45.8933 11.6745 47.1638 15.2841 47.3518 19.0287C49.7841 19.659 51.9036 21.1536 53.3141 23.233C54.7246 25.3124 55.3295 27.8343 55.0158 30.3272C54.7022 32.8202 53.4913 35.1136 51.6097 36.7788C49.728 38.444 47.3044 39.3669 44.7917 39.375H13.7917C10.7434 39.3769 7.7927 38.3006 5.46149 36.3365C3.13027 34.3724 1.56879 31.6472 1.05327 28.6428C0.537746 25.6384 1.10139 22.5485 2.64451 19.9196C4.18763 17.2908 6.61077 15.2924 9.48532 14.2779C10.4147 11.2654 12.068 8.52645 14.3006 6.3006ZM29.8265 10.4236C29.342 9.9393 28.6851 9.66723 28.0001 9.66723C27.3151 9.66723 26.6581 9.9393 26.1736 10.4236L21.007 15.5903C20.7602 15.8286 20.5634 16.1136 20.4281 16.4288C20.2927 16.744 20.2214 17.083 20.2184 17.426C20.2154 17.769 20.2808 18.1092 20.4107 18.4266C20.5406 18.7441 20.7324 19.0326 20.975 19.2751C21.2175 19.5177 21.506 19.7095 21.8234 19.8394C22.1409 19.9693 22.4811 20.0346 22.8241 20.0317C23.1671 20.0287 23.5061 19.9574 23.8213 19.822C24.1365 19.6866 24.4215 19.4898 24.6598 19.2431L25.4167 18.4862V27.75C25.4167 28.4352 25.6889 29.0922 26.1734 29.5767C26.6578 30.0612 27.3149 30.3333 28.0001 30.3333C28.6852 30.3333 29.3423 30.0612 29.8268 29.5767C30.3112 29.0922 30.5834 28.4352 30.5834 27.75V18.4862L31.3403 19.2431C31.8275 19.7137 32.4801 19.9741 33.1574 19.9682C33.8348 19.9623 34.4827 19.6906 34.9617 19.2116C35.4407 18.7327 35.7123 18.0847 35.7182 17.4074C35.7241 16.73 35.4637 16.0775 34.9931 15.5903L29.8265 10.4236Z" fill="#00CAE0"/>
</svg>
